<?xml version="1.0" encoding="UTF-8" standalone="no"?>
<!DOCTYPE svg PUBLIC "-//W3C//DTD SVG 1.1//EN" "http://www.w3.org/Graphics/SVG/1.1/DTD/svg11.dtd">
<svg width="100%" height="100%" viewBox="0 0 256 256" version="1.1" xmlns="http://www.w3.org/2000/svg" xmlns:xlink="http://www.w3.org/1999/xlink" xml:space="preserve" xmlns:serif="http://www.serif.com/" style="fill-rule:evenodd;clip-rule:evenodd;stroke-linejoin:round;stroke-miterlimit:1.41421;">
    <g transform="matrix(1.17054e-16,-1.88264,2.18319,1.31653e-16,-28.3964,247.178)">
        <rect x="24" y="24" width="40" height="30" style="fill:rgb(235,235,235);"/>
    </g>
    <g transform="matrix(1.10488e-16,-1.77702,2.18319,1.31653e-16,42.8558,274.649)">
        <rect x="24" y="24" width="40" height="30" style="fill:rgb(235,235,235);"/>
    </g>
    <g transform="matrix(1.27696e-16,-2.05379,2.18319,1.31653e-16,114.108,264.978)">
        <rect x="24" y="24" width="40" height="30" style="fill:rgb(235,235,235);"/>
    </g>
    <g transform="matrix(6.38479e-17,-1.02689,2.18319,1.31653e-16,-28.3964,89.7211)">
        <rect x="24" y="24" width="40" height="30" style="fill:rgb(235,235,235);"/>
    </g>
    <g transform="matrix(1.06413e-16,-1.71149,2.18319,1.31653e-16,42.8558,133.535)">
        <rect x="24" y="24" width="40" height="30" style="fill:rgb(235,235,235);"/>
    </g>
    <g transform="matrix(5.32066e-17,-0.855744,2.18319,1.31653e-16,114.108,78.7676)">
        <rect x="24" y="24" width="40" height="30" style="fill:rgb(235,235,235);"/>
    </g>
    <g transform="matrix(7.44892e-17,-1.19804,2.18319,1.31653e-16,-28.3964,148.596)">
        <rect x="24" y="24" width="40" height="30" style="fill:rgb(235,235,235);"/>
    </g>
    <g transform="matrix(8.51305e-17,-1.36919,2.18319,1.31653e-16,42.8558,186.934)">
        <rect x="24" y="24" width="40" height="30" style="fill:rgb(235,235,235);"/>
    </g>
    <g transform="matrix(9.57719e-17,-1.54034,2.18319,1.31653e-16,114.108,163.657)">
        <rect x="24" y="24" width="40" height="30" style="fill:rgb(235,235,235);"/>
    </g>
</svg>
