<?xml version="1.0" encoding="UTF-8" standalone="no"?>
<!DOCTYPE svg PUBLIC "-//W3C//DTD SVG 1.1//EN" "http://www.w3.org/Graphics/SVG/1.1/DTD/svg11.dtd">
<svg width="100%" height="100%" viewBox="0 0 256 256" version="1.1" xmlns="http://www.w3.org/2000/svg" xmlns:xlink="http://www.w3.org/1999/xlink" xml:space="preserve" xmlns:serif="http://www.serif.com/" style="fill-rule:evenodd;clip-rule:evenodd;stroke-linejoin:round;stroke-miterlimit:1.41421;">
    <g transform="matrix(1.02564e-16,-1.675,1.25625,7.69231e-17,-2.99375,272.2)">
        <rect x="24" y="24" width="40" height="30" style="fill:rgb(235,235,235);"/>
    </g>
    <g transform="matrix(1.02564e-16,-1.675,1.25625,7.69231e-17,38.0063,272.2)">
        <rect x="24" y="24" width="40" height="30" style="fill:rgb(235,235,235);"/>
    </g>
    <g transform="matrix(1.02564e-16,-1.675,1.25625,7.69231e-17,79.0063,272.2)">
        <rect x="24" y="24" width="40" height="30" style="fill:rgb(235,235,235);"/>
    </g>
    <g transform="matrix(1.02564e-16,-1.675,1.25625,7.69231e-17,120.006,272.2)">
        <rect x="24" y="24" width="40" height="30" style="fill:rgb(235,235,235);"/>
    </g>
    <g transform="matrix(1.02564e-16,-1.675,1.25625,7.69231e-17,161.006,272.2)">
        <rect x="24" y="24" width="40" height="30" style="fill:rgb(235,235,235);"/>
    </g>
    <g transform="matrix(1.02564e-16,-1.675,1.25625,7.69231e-17,-2.99375,131.2)">
        <rect x="24" y="24" width="40" height="30" style="fill:rgb(235,235,235);"/>
    </g>
    <g transform="matrix(1.02564e-16,-1.675,1.25625,7.69231e-17,38.0063,131.2)">
        <rect x="24" y="24" width="40" height="30" style="fill:rgb(235,235,235);"/>
    </g>
    <g transform="matrix(1.02564e-16,-1.675,1.25625,7.69231e-17,79.0063,131.2)">
        <rect x="24" y="24" width="40" height="30" style="fill:rgb(235,235,235);"/>
    </g>
    <g transform="matrix(1.02564e-16,-1.675,1.25625,7.69231e-17,120.006,131.2)">
        <rect x="24" y="24" width="40" height="30" style="fill:rgb(235,235,235);"/>
    </g>
    <g transform="matrix(1.02564e-16,-1.675,1.25625,7.69231e-17,161.006,131.2)">
        <rect x="24" y="24" width="40" height="30" style="fill:rgb(235,235,235);"/>
    </g>
    <g transform="matrix(1.02564e-16,-1.675,1.25625,7.69231e-17,-2.99375,201.7)">
        <rect x="24" y="24" width="40" height="30" style="fill:rgb(235,235,235);"/>
    </g>
    <g transform="matrix(1.02564e-16,-1.675,1.25625,7.69231e-17,38.0063,201.7)">
        <rect x="24" y="24" width="40" height="30" style="fill:rgb(235,235,235);"/>
    </g>
    <g transform="matrix(1.02564e-16,-1.675,1.25625,7.69231e-17,79.0063,201.7)">
        <rect x="24" y="24" width="40" height="30" style="fill:rgb(235,235,235);"/>
    </g>
    <g transform="matrix(1.02564e-16,-1.675,1.25625,7.69231e-17,120.006,201.7)">
        <rect x="24" y="24" width="40" height="30" style="fill:rgb(235,235,235);"/>
    </g>
    <g transform="matrix(1.02564e-16,-1.675,1.25625,7.69231e-17,161.006,201.7)">
        <rect x="24" y="24" width="40" height="30" style="fill:rgb(235,235,235);"/>
    </g>
</svg>
