<?xml version="1.0" encoding="UTF-8" standalone="no"?>
<!DOCTYPE svg PUBLIC "-//W3C//DTD SVG 1.1//EN" "http://www.w3.org/Graphics/SVG/1.1/DTD/svg11.dtd">
<svg width="100%" height="100%" viewBox="0 0 256 256" version="1.1" xmlns="http://www.w3.org/2000/svg" xmlns:xlink="http://www.w3.org/1999/xlink" xml:space="preserve" xmlns:serif="http://www.serif.com/" style="fill-rule:evenodd;clip-rule:evenodd;stroke-linejoin:round;stroke-miterlimit:1.41421;">
    <g transform="matrix(1.675,0,0,1.25625,-16.2,-2.99375)">
        <rect x="24" y="24" width="40" height="30" style="fill:rgb(235,235,235);"/>
    </g>
    <g transform="matrix(1.675,0,0,1.25625,-16.2,38.0063)">
        <rect x="24" y="24" width="40" height="30" style="fill:rgb(235,235,235);"/>
    </g>
    <g transform="matrix(1.675,0,0,1.25625,-16.2,79.0063)">
        <rect x="24" y="24" width="40" height="30" style="fill:rgb(235,235,235);"/>
    </g>
    <g transform="matrix(1.675,0,0,1.25625,-16.2,120.006)">
        <rect x="24" y="24" width="40" height="30" style="fill:rgb(235,235,235);"/>
    </g>
    <g transform="matrix(1.675,0,0,1.25625,-16.2,161.006)">
        <rect x="24" y="24" width="40" height="30" style="fill:rgb(235,235,235);"/>
    </g>
    <g transform="matrix(1.675,0,0,1.25625,124.8,-2.99375)">
        <rect x="24" y="24" width="40" height="30" style="fill:rgb(235,235,235);"/>
    </g>
    <g transform="matrix(1.675,0,0,1.25625,124.8,38.0063)">
        <rect x="24" y="24" width="40" height="30" style="fill:rgb(235,235,235);"/>
    </g>
    <g transform="matrix(1.675,0,0,1.25625,124.8,79.0063)">
        <rect x="24" y="24" width="40" height="30" style="fill:rgb(235,235,235);"/>
    </g>
    <g transform="matrix(1.675,0,0,1.25625,124.8,120.006)">
        <rect x="24" y="24" width="40" height="30" style="fill:rgb(235,235,235);"/>
    </g>
    <g transform="matrix(1.675,0,0,1.25625,124.8,161.006)">
        <rect x="24" y="24" width="40" height="30" style="fill:rgb(235,235,235);"/>
    </g>
    <g transform="matrix(1.675,0,0,1.25625,54.3,-2.99375)">
        <rect x="24" y="24" width="40" height="30" style="fill:rgb(235,235,235);"/>
    </g>
    <g transform="matrix(1.675,0,0,1.25625,54.3,38.0063)">
        <rect x="24" y="24" width="40" height="30" style="fill:rgb(235,235,235);"/>
    </g>
    <g transform="matrix(1.675,0,0,1.25625,54.3,79.0063)">
        <rect x="24" y="24" width="40" height="30" style="fill:rgb(235,235,235);"/>
    </g>
    <g transform="matrix(1.675,0,0,1.25625,54.3,120.006)">
        <rect x="24" y="24" width="40" height="30" style="fill:rgb(235,235,235);"/>
    </g>
    <g transform="matrix(1.675,0,0,1.25625,54.3,161.006)">
        <rect x="24" y="24" width="40" height="30" style="fill:rgb(235,235,235);"/>
    </g>
</svg>
