<?xml version="1.0" encoding="UTF-8" standalone="no"?>
<!DOCTYPE svg PUBLIC "-//W3C//DTD SVG 1.1//EN" "http://www.w3.org/Graphics/SVG/1.1/DTD/svg11.dtd">
<svg width="100%" height="100%" viewBox="0 0 256 256" version="1.1" xmlns="http://www.w3.org/2000/svg" xmlns:xlink="http://www.w3.org/1999/xlink" xml:space="preserve" xmlns:serif="http://www.serif.com/" style="fill-rule:evenodd;clip-rule:evenodd;stroke-linejoin:round;stroke-miterlimit:1.41421;">
    <rect x="24" y="24" width="64" height="64" style="fill:rgb(178,178,178);"/>
    <g transform="matrix(1,0,0,1,0,72)">
        <rect x="24" y="24" width="64" height="64" style="fill:rgb(178,178,178);"/>
    </g>
    <g transform="matrix(1,0,0,1,0,144)">
        <rect x="24" y="24" width="64" height="64" style="fill:rgb(178,178,178);"/>
    </g>
    <g transform="matrix(1,0,0,1,144,0)">
        <rect x="24" y="24" width="64" height="64" style="fill:rgb(178,178,178);"/>
    </g>
    <g transform="matrix(1,0,0,1,144,72)">
        <rect x="24" y="24" width="64" height="64" style="fill:rgb(178,178,178);"/>
    </g>
    <g transform="matrix(1,0,0,1,144,144)">
        <rect x="24" y="24" width="64" height="64" style="fill:rgb(178,178,178);"/>
    </g>
    <g transform="matrix(1,0,0,1,72,0)">
        <rect x="24" y="24" width="64" height="64" style="fill:rgb(178,178,178);"/>
    </g>
    <g transform="matrix(1,0,0,1,72,72)">
        <rect x="24" y="24" width="64" height="64" style="fill:rgb(178,178,178);"/>
    </g>
    <g transform="matrix(1,0,0,1,72,144)">
        <rect x="24" y="24" width="64" height="64" style="fill:rgb(178,178,178);"/>
    </g>
    <rect x="24" y="32" width="64" height="48" style="fill:rgb(178,178,178);"/>
    <rect x="108" y="24" width="40" height="64" style="fill:rgb(235,235,235);"/>
    <g transform="matrix(1,0,0,0.714286,0,16)">
        <rect x="168" y="28" width="64" height="56" style="fill:rgb(235,235,235);"/>
    </g>
    <g transform="matrix(0.714286,0,0,1,16,0)">
        <rect x="28" y="96" width="56" height="64" style="fill:rgb(235,235,235);"/>
    </g>
    <rect x="96" y="108" width="64" height="40" style="fill:rgb(235,235,235);"/>
    <rect x="168" y="104" width="64" height="48" style="fill:rgb(235,235,235);"/>
    <rect x="24" y="184" width="64" height="32" style="fill:rgb(235,235,235);"/>
    <rect x="104" y="168" width="48" height="64" style="fill:rgb(235,235,235);"/>
    <rect x="184" y="168" width="32" height="64" style="fill:rgb(235,235,235);"/>
</svg>
