<?xml version="1.0" encoding="UTF-8" standalone="no"?>
<!DOCTYPE svg PUBLIC "-//W3C//DTD SVG 1.1//EN" "http://www.w3.org/Graphics/SVG/1.1/DTD/svg11.dtd">
<svg width="100%" height="100%" viewBox="0 0 256 256" version="1.1" xmlns="http://www.w3.org/2000/svg" xmlns:xlink="http://www.w3.org/1999/xlink" xml:space="preserve" xmlns:serif="http://www.serif.com/" style="fill-rule:evenodd;clip-rule:evenodd;stroke-linejoin:round;stroke-miterlimit:1.41421;">
    <g transform="matrix(9.64409e-17,-1.575,1.575,9.64409e-17,-18.55,269.8)">
        <rect x="24" y="24" width="40" height="30" style="fill:rgb(235,235,235);"/>
    </g>
    <g transform="matrix(9.64409e-17,-1.575,1.575,9.64409e-17,38.2,269.8)">
        <rect x="24" y="24" width="40" height="30" style="fill:rgb(235,235,235);"/>
    </g>
    <g transform="matrix(9.64409e-17,-1.575,1.575,9.64409e-17,94.95,269.8)">
        <rect x="24" y="24" width="40" height="30" style="fill:rgb(235,235,235);"/>
    </g>
    <g transform="matrix(9.64409e-17,-1.575,1.575,9.64409e-17,151.7,269.8)">
        <rect x="24" y="24" width="40" height="30" style="fill:rgb(235,235,235);"/>
    </g>
    <g transform="matrix(9.64409e-17,-1.575,1.575,9.64409e-17,-18.55,197.3)">
        <rect x="24" y="24" width="40" height="30" style="fill:rgb(235,235,235);"/>
    </g>
    <g transform="matrix(9.64409e-17,-1.575,1.575,9.64409e-17,38.2,197.3)">
        <rect x="24" y="24" width="40" height="30" style="fill:rgb(235,235,235);"/>
    </g>
    <g transform="matrix(9.64409e-17,-1.575,1.575,9.64409e-17,94.95,197.3)">
        <rect x="24" y="24" width="40" height="30" style="fill:rgb(235,235,235);"/>
    </g>
    <g transform="matrix(9.64409e-17,-1.575,1.575,9.64409e-17,151.7,197.3)">
        <rect x="24" y="24" width="40" height="30" style="fill:rgb(235,235,235);"/>
    </g>
    <g transform="matrix(9.64409e-17,-1.575,1.575,9.64409e-17,-18.55,124.8)">
        <rect x="24" y="24" width="40" height="30" style="fill:rgb(235,235,235);"/>
    </g>
    <g transform="matrix(9.64409e-17,-1.575,1.575,9.64409e-17,38.2,124.8)">
        <rect x="24" y="24" width="40" height="30" style="fill:rgb(235,235,235);"/>
    </g>
    <g transform="matrix(9.64409e-17,-1.575,1.575,9.64409e-17,94.95,124.8)">
        <rect x="24" y="24" width="40" height="30" style="fill:rgb(235,235,235);"/>
    </g>
    <g transform="matrix(9.64409e-17,-1.575,1.575,9.64409e-17,151.7,124.8)">
        <rect x="24" y="24" width="40" height="30" style="fill:rgb(235,235,235);"/>
    </g>
</svg>
