<?xml version="1.0" encoding="UTF-8" standalone="no"?>
<!DOCTYPE svg PUBLIC "-//W3C//DTD SVG 1.1//EN" "http://www.w3.org/Graphics/SVG/1.1/DTD/svg11.dtd">
<svg width="100%" height="100%" viewBox="0 0 256 256" version="1.1" xmlns="http://www.w3.org/2000/svg" xmlns:xlink="http://www.w3.org/1999/xlink" xml:space="preserve" xmlns:serif="http://www.serif.com/" style="fill-rule:evenodd;clip-rule:evenodd;stroke-linejoin:round;stroke-miterlimit:1.41421;">
    <g transform="matrix(4.92919,0,0,5.71407,-582.116,-496.425)">
        <g id="Layer1">
            <path d="M147.023,118.251L140.798,118.251C140.782,117.355 140.773,116.81 140.773,116.615C140.773,114.597 141.107,112.936 141.774,111.634C142.442,110.332 143.776,108.867 145.778,107.24C147.78,105.612 148.977,104.546 149.367,104.042C149.969,103.244 150.271,102.365 150.271,101.405C150.271,100.07 149.738,98.927 148.671,97.975C147.605,97.023 146.169,96.546 144.362,96.546C142.621,96.546 141.164,97.043 139.992,98.036C138.82,99.029 138.015,100.542 137.575,102.577L131.276,101.795C131.455,98.882 132.697,96.408 135,94.374C137.303,92.339 140.326,91.322 144.069,91.322C148.008,91.322 151.141,92.351 153.469,94.41C155.796,96.469 156.96,98.866 156.96,101.6C156.96,103.114 156.533,104.546 155.678,105.897C154.824,107.248 152.997,109.087 150.197,111.415C148.749,112.619 147.85,113.587 147.5,114.32C147.15,115.052 146.991,116.363 147.023,118.251ZM140.798,127.479L140.798,120.619L147.658,120.619L147.658,127.479L140.798,127.479Z" style="fill:rgb(234,234,234);fill-rule:nonzero;"/>
        </g>
    </g>
</svg>
