<?xml version="1.0" encoding="UTF-8" standalone="no"?>
<!DOCTYPE svg PUBLIC "-//W3C//DTD SVG 1.1//EN" "http://www.w3.org/Graphics/SVG/1.1/DTD/svg11.dtd">
<svg width="100%" height="100%" viewBox="0 0 256 256" version="1.1" xmlns="http://www.w3.org/2000/svg" xmlns:xlink="http://www.w3.org/1999/xlink" xml:space="preserve" xmlns:serif="http://www.serif.com/" style="fill-rule:evenodd;clip-rule:evenodd;stroke-linejoin:round;stroke-miterlimit:2;">
    <g id="Layer1">
        <g transform="matrix(3.14094e-15,10.2591,-4.20338,1.28691e-15,720.863,-974.853)">
            <path d="M107.5,128L114,146L101,146L107.5,128Z" style="fill:rgb(235,235,235);"/>
        </g>
        <path d="M128,24C185.399,24 232,70.601 232,128C232,185.399 185.399,232 128,232C70.601,232 24,185.399 24,128C24,70.601 70.601,24 128,24ZM128,35.12C76.738,35.12 35.12,76.738 35.12,128C35.12,179.262 76.738,220.88 128,220.88C179.262,220.88 220.88,179.262 220.88,128C220.88,76.738 179.262,35.12 128,35.12Z" style="fill:rgb(235,235,235);"/>
        <g transform="matrix(0.829031,0,0,0.829031,21.884,21.884)">
            <path d="M128,24C185.399,24 232,70.601 232,128C232,185.399 185.399,232 128,232C70.601,232 24,185.399 24,128C24,70.601 70.601,24 128,24ZM128,35.12C76.738,35.12 35.12,76.738 35.12,128C35.12,179.262 76.738,220.88 128,220.88C179.262,220.88 220.88,179.262 220.88,128C220.88,76.738 179.262,35.12 128,35.12Z" style="fill:rgb(235,235,235);"/>
        </g>
        <g transform="matrix(0.663212,0,0,0.663212,43.1089,43.1089)">
            <path d="M128,24C185.399,24 232,70.601 232,128C232,185.399 185.399,232 128,232C70.601,232 24,185.399 24,128C24,70.601 70.601,24 128,24ZM128,35.12C76.738,35.12 35.12,76.738 35.12,128C35.12,179.262 76.738,220.88 128,220.88C179.262,220.88 220.88,179.262 220.88,128C220.88,76.738 179.262,35.12 128,35.12Z" style="fill:rgb(235,235,235);"/>
        </g>
    </g>
</svg>
