<?xml version="1.0" encoding="UTF-8" standalone="no"?>
<!DOCTYPE svg PUBLIC "-//W3C//DTD SVG 1.1//EN" "http://www.w3.org/Graphics/SVG/1.1/DTD/svg11.dtd">
<svg width="100%" height="100%" viewBox="0 0 256 256" version="1.1" xmlns="http://www.w3.org/2000/svg" xmlns:xlink="http://www.w3.org/1999/xlink" xml:space="preserve" xmlns:serif="http://www.serif.com/" style="fill-rule:evenodd;clip-rule:evenodd;stroke-linejoin:round;stroke-miterlimit:1.41421;">
    <g id="Layer1">
        <g transform="matrix(1.37349,0,0,1.37349,-52.9157,-57.4217)">
            <path d="M192,102L222,154L162,154L192,102Z" style="fill:rgb(235,235,235);"/>
        </g>
        <g transform="matrix(1.37349,0,0,1.37349,-51.5422,-47.8072)">
            <path d="M201,128C201,168.29 168.29,201 128,201C87.71,201 55,168.29 55,128C55,87.71 87.71,55 128,55L128,72.49C97.363,72.49 72.49,97.363 72.49,128C72.49,158.637 97.363,183.51 128,183.51C158.637,183.51 183.51,158.637 183.51,128L201,128Z" style="fill:rgb(235,235,235);"/>
        </g>
    </g>
</svg>
