<?xml version="1.0" encoding="UTF-8" standalone="no"?>
<!DOCTYPE svg PUBLIC "-//W3C//DTD SVG 1.1//EN" "http://www.w3.org/Graphics/SVG/1.1/DTD/svg11.dtd">
<svg width="100%" height="100%" viewBox="0 0 256 256" version="1.1" xmlns="http://www.w3.org/2000/svg" xmlns:xlink="http://www.w3.org/1999/xlink" xml:space="preserve" xmlns:serif="http://www.serif.com/" style="fill-rule:evenodd;clip-rule:evenodd;stroke-linejoin:round;stroke-miterlimit:1.41421;">
    <g id="Layer1">
        <g transform="matrix(1.09521,0,0,1.09521,-22.0888,4.75843)">
            <path d="M223.623,24C228.247,24 232,27.754 232,32.377L232,148.623C232,153.246 228.246,157 223.623,157L219.318,157L219.318,46.324C219.318,41.701 215.565,37.947 210.941,37.947L86,37.947L86,32.377C86,27.754 89.753,24 94.377,24L223.623,24Z" style="fill:rgb(235,235,235);"/>
        </g>
        <g transform="matrix(1.09521,0,0,1.09521,-14.4223,-0.717625)">
            <path d="M196.06,51.675C200.684,51.676 204.437,55.429 204.437,60.052L204.437,176.298C204.437,180.922 200.684,184.675 196.06,184.675L189.169,184.675L189.169,73.373C189.169,68.75 185.416,64.997 180.792,64.996L58.437,64.996L58.437,60.052C58.437,55.429 62.19,51.676 66.814,51.675L196.06,51.675Z" style="fill:rgb(235,235,235);"/>
        </g>
        <g transform="matrix(-1.09521,1.34125e-16,-1.34125e-16,-1.09521,211.371,313.729)">
            <path d="M162.705,81.056C167.329,81.056 171.082,84.809 171.082,89.432L171.082,205.679C171.082,210.302 167.329,214.056 162.705,214.056L33.459,214.056C28.836,214.056 25.082,210.302 25.082,205.679L25.082,89.432C25.082,84.809 28.835,81.056 33.459,81.056L162.705,81.056ZM61.5,147.556L128,114.306L128,180.806L61.5,147.556Z" style="fill:rgb(235,235,235);"/>
        </g>
    </g>
</svg>
