<?xml version="1.0" encoding="UTF-8" standalone="no"?>
<!DOCTYPE svg PUBLIC "-//W3C//DTD SVG 1.1//EN" "http://www.w3.org/Graphics/SVG/1.1/DTD/svg11.dtd">
<svg width="100%" height="100%" viewBox="0 0 256 256" version="1.1" xmlns="http://www.w3.org/2000/svg" xmlns:xlink="http://www.w3.org/1999/xlink" xml:space="preserve" xmlns:serif="http://www.serif.com/" style="fill-rule:evenodd;clip-rule:evenodd;stroke-linejoin:round;stroke-miterlimit:1.41421;">
    <path d="M232,39C232,30.721 225.279,24 217,24L39,24C30.721,24 24,30.721 24,39L24,69C24,77.279 30.721,84 39,84L217,84C225.279,84 232,77.279 232,69L232,39Z" style="fill:rgb(234,234,234);"/>
    <g transform="matrix(1,0,0,1,0,148)">
        <path d="M232,39C232,30.721 225.279,24 217,24L39,24C30.721,24 24,30.721 24,39L24,69C24,77.279 30.721,84 39,84L217,84C225.279,84 232,77.279 232,69L232,39Z" style="fill:rgb(234,234,234);"/>
    </g>
    <g transform="matrix(1,0,0,1,0,74)">
        <path d="M232,39C232,30.721 225.279,24 217,24L39,24C30.721,24 24,30.721 24,39L24,69C24,77.279 30.721,84 39,84L217,84C225.279,84 232,77.279 232,69L232,39Z" style="fill:rgb(234,234,234);"/>
    </g>
    <g transform="matrix(1.23188,0,0,1.23188,-21.85,8.80137)">
        <text x="49.347px" y="54.586px" style="font-family:'Arial-Black', 'Arial Black', sans-serif;font-weight:900;font-size:50px;">A/A</text>
    </g>
    <g transform="matrix(1.23188,0,0,1.23188,-21.85,82.8014)">
        <text x="49.347px" y="54.586px" style="font-family:'Arial-Black', 'Arial Black', sans-serif;font-weight:900;font-size:50px;">B/B</text>
    </g>
    <g transform="matrix(1.23188,0,0,1.23188,-21.85,156.756)">
        <text x="49.347px" y="54.586px" style="font-family:'Arial-Black', 'Arial Black', sans-serif;font-weight:900;font-size:50px;">C/C</text>
    </g>
</svg>
